<svg width="27" height="40" viewBox="0 0 27 40" fill="none" xmlns="http://www.w3.org/2000/svg">
<path d="M8.90936 20.5463C7.38521 20.5463 6.13818 19.0499 6.13818 17.2209C6.13818 15.3919 7.38521 13.8955 8.90936 13.8955C10.4335 13.8955 11.6805 15.3919 11.6805 17.2209C11.6805 19.0499 10.4335 20.5463 8.90936 20.5463ZM8.90936 16.4133C8.53327 16.4133 8.21657 16.7696 8.21657 17.2447C8.21657 17.696 8.51348 18.0523 8.90936 18.0523C9.30525 18.0523 9.60216 17.696 9.60216 17.2447C9.60216 16.7696 9.28545 16.4133 8.90936 16.4133Z" fill="black"/>
<path d="M13.7787 40C9.00835 40 5.44541 38.3136 3.20867 35.0119C1.0709 31.8765 0.833374 28.1948 0.833374 26.7696V16.6033C0.833374 13.6342 2.04082 10.9739 4.23797 9.0974C6.11841 7.4822 8.57288 6.57959 11.0076 6.57959C14.5309 6.57959 21.1818 8.74111 21.1818 16.9121V21.1164C21.1818 25.487 17.7772 29.3112 13.9173 29.3112V26.8171C16.6885 26.8171 19.1034 24.1568 19.1034 21.1402V16.9121C19.1034 9.16866 11.3441 9.07365 11.0274 9.07365C7.14771 9.07365 2.95135 11.9478 2.95135 16.6033V26.7696C2.95135 29.2874 3.74311 37.506 13.8183 37.506V40H13.7787Z" fill="black"/>
<path d="M14.6892 34.323C9.66152 34.323 6.15796 31.4014 6.15796 27.2209C6.15796 24.1805 8.0384 21.9715 10.6512 21.9715C12.7692 21.9715 13.7589 20.7363 13.7589 18.1235C13.7589 16.9834 13.462 16.1045 12.888 15.5107C12.3733 14.9881 11.6607 14.7031 10.869 14.7031C9.60214 14.7031 8.25614 15.4869 8.25614 16.9121H6.15796C6.15796 13.848 8.57284 12.209 10.8492 12.209C12.1358 12.209 13.3432 12.7078 14.234 13.6105C14.9664 14.3705 15.8373 15.7482 15.8373 18.1235C15.8373 22.1615 13.9371 24.4656 10.6314 24.4656C9.16667 24.4656 8.21655 25.5344 8.21655 27.1971C8.21655 30.3563 11.5618 31.8052 14.6694 31.8052C20.8452 31.8052 24.6655 26.1283 24.6655 20.8789V14.7506C24.6655 11.0689 23.5966 2.49406 13.7391 2.49406V0C25.7937 0 26.7439 11.2827 26.7439 14.7506V20.9026C26.7835 27.3634 22.1516 34.323 14.6892 34.323Z" fill="black"/>
</svg>
